<svg width="300" height="68" viewBox="0 0 300 68" fill="none" xmlns="http://www.w3.org/2000/svg">
<path d="M15.3974 55H7.11813L7.17086 49.3047H15.3974C17.6298 49.3047 19.5019 48.8125 21.0136 47.8281C22.5254 46.8262 23.6679 45.3936 24.4414 43.5303C25.2148 41.6494 25.6015 39.3994 25.6015 36.7803V34.8027C25.6015 32.7812 25.3818 30.9971 24.9423 29.4502C24.5029 27.9033 23.8525 26.6025 22.9912 25.5479C22.1474 24.4932 21.1015 23.6934 19.8535 23.1484C18.6054 22.6035 17.1728 22.3311 15.5556 22.3311H6.95992V16.6094H15.5556C18.122 16.6094 20.4599 17.04 22.5693 17.9014C24.6963 18.7627 26.5332 20.002 28.08 21.6191C29.6445 23.2188 30.8398 25.1348 31.666 27.3672C32.5097 29.5996 32.9316 32.0957 32.9316 34.8555V36.7803C32.9316 39.5225 32.5097 42.0186 31.666 44.2686C30.8398 46.501 29.6445 48.417 28.08 50.0166C26.5332 51.6162 24.6875 52.8467 22.5429 53.708C20.3984 54.5693 18.0166 55 15.3974 55ZM11.1787 16.6094V55H3.9277V16.6094H11.1787ZM54.6286 55.5273C52.4665 55.5273 50.5241 55.1758 48.8015 54.4727C47.0788 53.7695 45.6111 52.7939 44.3982 51.5459C43.2029 50.2803 42.28 48.8125 41.6296 47.1426C40.9968 45.4551 40.6804 43.6445 40.6804 41.7109V40.6562C40.6804 38.459 40.9968 36.4639 41.6296 34.6709C42.2624 32.8604 43.1589 31.3047 44.3191 30.0039C45.4792 28.7031 46.8679 27.7012 48.4851 26.998C50.1023 26.2949 51.8864 25.9434 53.8376 25.9434C55.8591 25.9434 57.6433 26.2861 59.1902 26.9717C60.737 27.6396 62.029 28.5889 63.0661 29.8193C64.1032 31.0498 64.8855 32.5264 65.4128 34.249C65.9402 35.9541 66.2038 37.8438 66.2038 39.918V42.8447H43.8445V38.0459H59.3484V37.5186C59.3132 36.4111 59.1023 35.4004 58.7155 34.4863C58.3288 33.5547 57.7312 32.8164 56.9226 32.2715C56.114 31.709 55.0681 31.4277 53.7849 31.4277C52.7478 31.4277 51.8425 31.6562 51.0691 32.1133C50.3132 32.5527 49.6804 33.1855 49.1706 34.0117C48.6784 34.8203 48.3093 35.7871 48.0632 36.9121C47.8171 38.0371 47.6941 39.2852 47.6941 40.6562V41.7109C47.6941 42.9062 47.8523 44.0137 48.1687 45.0332C48.5027 46.0527 48.9861 46.9404 49.6189 47.6963C50.2693 48.4346 51.0427 49.0146 51.9392 49.4365C52.8532 49.8408 53.8904 50.043 55.0505 50.043C56.5095 50.043 57.8279 49.7617 59.0056 49.1992C60.2009 48.6191 61.238 47.7666 62.1169 46.6416L65.6238 50.2803C65.0261 51.1592 64.2175 52.0029 63.198 52.8115C62.196 53.6201 60.9831 54.2793 59.5593 54.7891C58.1355 55.2812 56.4919 55.5273 54.6286 55.5273ZM81.4936 14.5V55H74.5063V14.5H81.4936ZM104.193 55.5273C102.031 55.5273 100.088 55.1758 98.3655 54.4727C96.6428 53.7695 95.175 52.7939 93.9622 51.5459C92.7668 50.2803 91.844 48.8125 91.1936 47.1426C90.5608 45.4551 90.2444 43.6445 90.2444 41.7109V40.6562C90.2444 38.459 90.5608 36.4639 91.1936 34.6709C91.8264 32.8604 92.7229 31.3047 93.883 30.0039C95.0432 28.7031 96.4319 27.7012 98.0491 26.998C99.6663 26.2949 101.45 25.9434 103.402 25.9434C105.423 25.9434 107.207 26.2861 108.754 26.9717C110.301 27.6396 111.593 28.5889 112.63 29.8193C113.667 31.0498 114.449 32.5264 114.977 34.249C115.504 35.9541 115.768 37.8438 115.768 39.918V42.8447H93.4084V38.0459H108.912V37.5186C108.877 36.4111 108.666 35.4004 108.28 34.4863C107.893 33.5547 107.295 32.8164 106.487 32.2715C105.678 31.709 104.632 31.4277 103.349 31.4277C102.312 31.4277 101.406 31.6562 100.633 32.1133C99.8772 32.5527 99.2444 33.1855 98.7346 34.0117C98.2424 34.8203 97.8733 35.7871 97.6272 36.9121C97.3811 38.0371 97.258 39.2852 97.258 40.6562V41.7109C97.258 42.9062 97.4163 44.0137 97.7327 45.0332C98.0666 46.0527 98.55 46.9404 99.1829 47.6963C99.8332 48.4346 100.607 49.0146 101.503 49.4365C102.417 49.8408 103.454 50.043 104.614 50.043C106.073 50.043 107.392 49.7617 108.57 49.1992C109.765 48.6191 110.802 47.7666 111.681 46.6416L115.188 50.2803C114.59 51.1592 113.781 52.0029 112.762 52.8115C111.76 53.6201 110.547 54.2793 109.123 54.7891C107.699 55.2812 106.056 55.5273 104.193 55.5273ZM137.175 26.4707V31.4805H120.827V26.4707H137.175ZM125.204 19.457H132.191V46.7734C132.191 47.6172 132.306 48.2676 132.534 48.7246C132.763 49.1816 133.105 49.4893 133.562 49.6475C134.02 49.8057 134.564 49.8848 135.197 49.8848C135.654 49.8848 136.076 49.8584 136.463 49.8057C136.85 49.7529 137.175 49.7002 137.438 49.6475L137.465 54.8682C136.885 55.0615 136.226 55.2197 135.487 55.3428C134.767 55.4658 133.949 55.5273 133.035 55.5273C131.471 55.5273 130.1 55.2637 128.922 54.7363C127.744 54.1914 126.83 53.3213 126.18 52.126C125.529 50.9131 125.204 49.3135 125.204 47.3271V19.457ZM157.87 55.5273C155.708 55.5273 153.765 55.1758 152.043 54.4727C150.32 53.7695 148.852 52.7939 147.639 51.5459C146.444 50.2803 145.521 48.8125 144.871 47.1426C144.238 45.4551 143.922 43.6445 143.922 41.7109V40.6562C143.922 38.459 144.238 36.4639 144.871 34.6709C145.504 32.8604 146.4 31.3047 147.56 30.0039C148.72 28.7031 150.109 27.7012 151.726 26.998C153.344 26.2949 155.128 25.9434 157.079 25.9434C159.1 25.9434 160.885 26.2861 162.431 26.9717C163.978 27.6396 165.27 28.5889 166.307 29.8193C167.344 31.0498 168.127 32.5264 168.654 34.249C169.181 35.9541 169.445 37.8438 169.445 39.918V42.8447H147.086V38.0459H162.59V37.5186C162.554 36.4111 162.344 35.4004 161.957 34.4863C161.57 33.5547 160.972 32.8164 160.164 32.2715C159.355 31.709 158.309 31.4277 157.026 31.4277C155.989 31.4277 155.084 31.6562 154.31 32.1133C153.554 32.5527 152.922 33.1855 152.412 34.0117C151.92 34.8203 151.551 35.7871 151.304 36.9121C151.058 38.0371 150.935 39.2852 150.935 40.6562V41.7109C150.935 42.9062 151.094 44.0137 151.41 45.0332C151.744 46.0527 152.227 46.9404 152.86 47.6963C153.51 48.4346 154.284 49.0146 155.18 49.4365C156.094 49.8408 157.132 50.043 158.292 50.043C159.751 50.043 161.069 49.7617 162.247 49.1992C163.442 48.6191 164.479 47.7666 165.358 46.6416L168.865 50.2803C168.267 51.1592 167.459 52.0029 166.439 52.8115C165.437 53.6201 164.224 54.2793 162.801 54.7891C161.377 55.2812 159.733 55.5273 157.87 55.5273ZM185.605 16.6094V55H178.354V16.6094H185.605ZM209.649 26.4707V31.4805H193.301V26.4707H209.649ZM197.678 19.457H204.665V46.7734C204.665 47.6172 204.78 48.2676 205.008 48.7246C205.237 49.1816 205.579 49.4893 206.036 49.6475C206.493 49.8057 207.038 49.8848 207.671 49.8848C208.128 49.8848 208.55 49.8584 208.937 49.8057C209.324 49.7529 209.649 49.7002 209.912 49.6475L209.939 54.8682C209.359 55.0615 208.699 55.2197 207.961 55.3428C207.241 55.4658 206.423 55.5273 205.509 55.5273C203.945 55.5273 202.574 55.2637 201.396 54.7363C200.218 54.1914 199.304 53.3213 198.654 52.126C198.003 50.9131 197.678 49.3135 197.678 47.3271V19.457ZM217.819 51.5986C217.819 50.5439 218.18 49.6562 218.9 48.9355C219.621 48.2148 220.597 47.8545 221.827 47.8545C223.058 47.8545 224.033 48.2148 224.754 48.9355C225.475 49.6562 225.835 50.5439 225.835 51.5986C225.835 52.6357 225.475 53.5146 224.754 54.2354C224.033 54.9385 223.058 55.29 221.827 55.29C220.597 55.29 219.621 54.9385 218.9 54.2354C218.18 53.5146 217.819 52.6357 217.819 51.5986Z" fill="#E1EAF2"/>
</svg>
